name GIL11_xslow1.mot
datacolumns 153
datarows 4
range 0.98333335 1.00833344
endheader

                time	           pelvis_tx	           pelvis_ty	           pelvis_tz	         pelvis_tilt	         pelvis_list	     pelvis_rotation	       hip_flexion_r	     hip_adduction_r	      hip_rotation_r	        knee_angle_r	       ankle_angle_r	    subtalar_angle_r	         mtp_angle_r	       hip_flexion_l	     hip_adduction_l	      hip_rotation_l	        knee_angle_l	       ankle_angle_l	    subtalar_angle_l	         mtp_angle_l	    lumbar_extension	      lumbar_bending	     lumbar_rotation	     ground_force_vx	     ground_force_vy	     ground_force_vz	     ground_force_px	     ground_force_py	     ground_force_pz	     ground_force_vx	     ground_force_vy	     ground_force_vz	     ground_force_px	     ground_force_py	     ground_force_pz	     ground_torque_x	     ground_torque_y	     ground_torque_z	     ground_torque_x	     ground_torque_y	     ground_torque_z	    ground_marker_px	    ground_marker_py	    ground_marker_pz	    ground_marker_px	    ground_marker_py	    ground_marker_pz	    ground_marker_px	    ground_marker_py	    ground_marker_pz	    ground_marker_px	    ground_marker_py	    ground_marker_pz	    ground_marker_px	    ground_marker_py	    ground_marker_pz	    ground_marker_px	    ground_marker_py	    ground_marker_pz	    ground_marker_px	    ground_marker_py	    ground_marker_pz	    ground_marker_px	    ground_marker_py	    ground_marker_pz	    ground_marker_px	    ground_marker_py	    ground_marker_pz	    ground_marker_px	    ground_marker_py	    ground_marker_pz	    ground_marker_px	    ground_marker_py	    ground_marker_pz	    ground_marker_px	    ground_marker_py	    ground_marker_pz	    ground_marker_px	    ground_marker_py	    ground_marker_pz	    ground_marker_px	    ground_marker_py	    ground_marker_pz	    ground_marker_px	    ground_marker_py	    ground_marker_pz	    ground_marker_px	    ground_marker_py	    ground_marker_pz	    ground_marker_px	    ground_marker_py	    ground_marker_pz	    ground_marker_px	    ground_marker_py	    ground_marker_pz	    ground_marker_px	    ground_marker_py	    ground_marker_pz	    ground_marker_px	    ground_marker_py	    ground_marker_pz	    ground_marker_px	    ground_marker_py	    ground_marker_pz	    ground_marker_px	    ground_marker_py	    ground_marker_pz	    ground_marker_px	    ground_marker_py	    ground_marker_pz	    ground_marker_px	    ground_marker_py	    ground_marker_pz	    ground_marker_px	    ground_marker_py	    ground_marker_pz	    ground_marker_px	    ground_marker_py	    ground_marker_pz	    ground_marker_px	    ground_marker_py	    ground_marker_pz	    ground_marker_px	    ground_marker_py	    ground_marker_pz	    ground_marker_px	    ground_marker_py	    ground_marker_pz	    ground_marker_px	    ground_marker_py	    ground_marker_pz	    ground_marker_px	    ground_marker_py	    ground_marker_pz	    ground_marker_px	    ground_marker_py	    ground_marker_pz	    ground_marker_px	    ground_marker_py	    ground_marker_pz	    ground_marker_px	    ground_marker_py	    ground_marker_pz	    ground_marker_px	    ground_marker_py	    ground_marker_pz	    ground_marker_px	    ground_marker_py	    ground_marker_pz	    ground_marker_px	    ground_marker_py	    ground_marker_pz	
          0.98333335	          0.61627674	          0.86835486	         -0.27374625	         -5.70414925	         -3.18588161	          4.43673229	         18.16610336	          2.51282048	          9.27642536	         -1.57801664	         -8.29176807	          0.00000000	          0.00000000	        -10.34200287	         -3.81355762	         11.25626278	        -14.43373299	          3.59772706	          0.00000000	          0.00000000	         -2.26118231	         -0.86455131	         -2.90078354	        -46.24184825	        389.72939792	        -16.47279247	          0.68510828	          0.00000000	         -0.20165390	         36.72385190	        208.44693354	          5.57699148	          0.33330151	          0.00000000	         -0.35378979	          0.00000000	         -1.90717383	          0.00000000	          0.00000000	         -0.50406659	          0.00000000	          0.54432762	          0.82247144	         -0.26308116	          0.53382784	          0.79912561	         -0.18784283	          0.51508152	          0.79466915	         -0.33874521	          0.61182576	          0.43608850	         -0.20063016	          0.40772900	          0.42872757	         -0.34370673	          0.68075198	          0.06591728	         -0.21222882	          0.21827684	          0.11464733	         -0.33577207	          0.61627674	          0.86835486	         -0.27374625	          0.62707722	          0.87184507	         -0.15500325	          0.60547620	          0.86486465	         -0.39248928	          0.42430058	          0.93451196	         -0.22030178	          0.41680291	          0.93019700	         -0.27515537	          0.62663430	          0.43729532	         -0.14456548	          0.41446739	          0.42753169	         -0.40130153	          0.59790635	          0.43204919	         -0.24733591	          0.43023926	          0.43541142	         -0.27659675	          0.66827166	          0.06240777	         -0.17438804	          0.20419966	          0.12221227	         -0.37244087	          0.68919444	          0.07715132	         -0.24490221	          0.23236613	          0.11829562	         -0.31174326	          0.48584917	          1.37056804	         -0.26173675	          0.61098552	          1.30821574	         -0.21791771	          0.60645396	          1.30277443	         -0.32444030	          0.60505700	          1.30227816	         -0.27031636	          0.64388347	          1.23220170	         -0.27222827	          0.73084509	          0.59662366	         -0.24029051	          0.48971072	          0.54987204	         -0.48275465	          0.67392564	          0.63520634	         -0.16810259	          0.43899205	          0.61006886	         -0.42493659	          0.67903179	          0.54717094	         -0.16876368	          0.42962894	          0.52397376	         -0.41246685	          0.64815986	          0.13830943	         -0.10141711	          0.36309460	          0.17604202	         -0.33777955	          0.64770353	          0.14796941	         -0.14389749	          0.32488367	          0.19674331	         -0.34247693	          0.78327286	          0.04215667	         -0.18123868	          0.30054826	          0.04718794	         -0.36664197	
          0.99166667	          0.62198377	          0.86929578	         -0.27181518	         -5.65657425	         -3.17681456	          4.40335751	         17.65206337	          2.65065932	          9.10134602	         -1.46056867	         -8.06643009	          0.00000000	          0.00000000	        -10.13516331	         -4.13166571	         11.54742432	        -15.38375378	          2.44422388	          0.00000000	          0.00000000	         -2.29622436	         -0.93488783	         -2.82100511	        -46.90673450	        404.42439046	        -17.51069065	          0.68577728	          0.00000000	         -0.20115337	         34.92832145	        188.12009447	          4.99698370	          0.33350372	          0.00000000	         -0.35355478	          0.00000000	         -1.99306909	          0.00000000	          0.00000000	         -0.42229419	          0.00000000	          0.54981261	          0.82306302	         -0.26147276	          0.53954291	          0.79999757	         -0.18595962	          0.52089137	          0.79552108	         -0.33687314	          0.61449289	          0.43653229	         -0.19925968	          0.41491243	          0.42880219	         -0.34411561	          0.68094426	          0.06603039	         -0.21208322	          0.22146021	          0.11769679	         -0.33637461	          0.62198377	          0.86929578	         -0.27181518	          0.63271201	          0.87279916	         -0.15304047	          0.61125547	          0.86579239	         -0.39058992	          0.42985326	          0.93528724	         -0.21885948	          0.42247313	          0.93094456	         -0.27363202	          0.62912256	          0.43749562	         -0.14314334	          0.42205319	          0.42787519	         -0.40166691	          0.59896988	          0.43301442	         -0.24524544	          0.43715033	          0.43515196	         -0.27666131	          0.66831380	          0.06245726	         -0.17429824	          0.20716467	          0.12567797	         -0.37287033	          0.68899029	          0.07795233	         -0.24473630	          0.23546076	          0.12126761	         -0.31236696	          0.49094316	          1.37168431	         -0.26011220	          0.61631960	          1.30939627	         -0.21619505	          0.61168414	          1.30382681	         -0.32286945	          0.61044741	          1.30325770	         -0.26871225	          0.64921528	          1.23334134	         -0.27053457	          0.73514581	          0.59578937	         -0.23821402	          0.49740839	          0.55078334	         -0.48224986	          0.67836142	          0.63507897	         -0.16649991	          0.44657388	          0.61055148	         -0.42418250	          0.68179971	          0.54693896	         -0.16672167	          0.43703863	          0.52426231	         -0.41211373	          0.64843345	          0.13822520	         -0.10091002	          0.36717480	          0.17677002	         -0.33930486	          0.64785492	          0.14791036	         -0.14289963	          0.32942700	          0.19798103	         -0.34365818	          0.78340971	          0.04189546	         -0.18118925	          0.30147728	          0.04740411	         -0.36681765	
          1.00000000	          0.62762076	          0.87020040	         -0.26990765	         -5.61433792	         -3.14738131	          4.37593651	         17.13926888	          2.76386285	          8.86299515	         -1.31727421	         -7.86801147	          0.00000000	          0.00000000	         -9.85783386	         -4.42980480	         11.82665348	        -16.42023468	          1.21634686	          0.00000000	          0.00000000	         -2.23945260	         -0.78997111	         -2.86730170	        -47.59876349	        419.85868373	        -18.42828584	          0.68642432	          0.00000000	         -0.20068636	         32.28310607	        167.98391259	          4.29843514	          0.33389514	          0.00000000	         -0.35332300	          0.00000000	         -2.06527466	          0.00000000	          0.00000000	         -0.34558011	          0.00000000	          0.55512059	          0.82347858	         -0.25952637	          0.54518044	          0.80080968	         -0.18412638	          0.52662450	          0.79637104	         -0.33505276	          0.61707938	          0.43688795	         -0.19792092	          0.42244062	          0.42873421	         -0.34462136	          0.68121785	          0.06614188	         -0.21193630	          0.22492348	          0.12078467	         -0.33690289	          0.62762076	          0.87020040	         -0.26990765	          0.63827384	          0.87367100	         -0.15112473	          0.61696768	          0.86672986	         -0.38869059	          0.43534747	          0.93605036	         -0.21740450	          0.42809150	          0.93164903	         -0.27208325	          0.63146055	          0.43759951	         -0.14173661	          0.42996341	          0.42809910	         -0.40212789	          0.60053521	          0.43370038	         -0.24072240	          0.44539326	          0.43484673	         -0.27672589	          0.66838777	          0.06249671	         -0.17422552	          0.21039885	          0.12919061	         -0.37321234	          0.68931687	          0.07827003	         -0.24458067	          0.23916179	          0.12386141	         -0.31311947	          0.49635178	          1.37229538	         -0.25880778	          0.62169683	          1.31016910	         -0.21463962	          0.61725312	          1.30489361	         -0.32134569	          0.61578536	          1.30421400	         -0.26708338	          0.65482664	          1.23432982	         -0.26914266	          0.73934805	          0.59486437	         -0.23597907	          0.50527132	          0.55167204	         -0.48188096	          0.68390936	          0.63515806	         -0.16456793	          0.45416257	          0.61063182	         -0.42362893	          0.68585926	          0.54696453	         -0.16394024	          0.44503787	          0.52455747	         -0.41189975	          0.64860713	          0.13814571	         -0.10046963	          0.37153825	          0.17747094	         -0.34086937	          0.64819670	          0.14797303	         -0.14253159	          0.33357304	          0.19906849	         -0.34497884	          0.78344637	          0.04164841	         -0.18100511	          0.30245185	          0.04759881	         -0.36691445	
          1.00833344	          0.63317508	          0.87106460	         -0.26802564	         -5.57799530	         -3.10070205	          4.34949827	         16.63732910	          2.85957217	          8.54878998	         -1.16752982	         -7.67724657	          0.00000000	          0.00000000	         -9.50120926	         -4.70885801	         12.06713963	        -17.56049919	         -0.05698627	          0.00000000	          0.00000000	         -2.12936473	         -0.76835722	         -2.83416128	        -48.21878622	        436.01856716	        -19.31115779	          0.68703870	          0.00000000	         -0.20022148	         28.89616695	        148.16896314	          3.48349432	          0.33462759	          0.00000000	         -0.35311682	          0.00000000	         -2.11347803	          0.00000000	          0.00000000	         -0.27323898	          0.00000000	          0.56059253	          0.82408977	         -0.25740084	          0.55072176	          0.80156487	         -0.18234511	          0.53227216	          0.79721022	         -0.33328700	          0.61961842	          0.43718082	         -0.19663517	          0.43036243	          0.42850628	         -0.34521607	          0.68156004	          0.06622874	         -0.21175399	          0.22867161	          0.12389174	         -0.33734646	          0.63317508	          0.87106460	         -0.26802564	          0.64374191	          0.87446564	         -0.14926216	          0.62260824	          0.86766356	         -0.38678908	          0.44077930	          0.93679905	         -0.21593820	          0.43365461	          0.93230587	         -0.27051648	          0.63366729	          0.43763036	         -0.14036417	          0.43822426	          0.42819244	         -0.40267989	          0.60423857	          0.43341547	         -0.23654941	          0.45489192	          0.43270686	         -0.27816603	          0.66848356	          0.06251199	         -0.17413497	          0.21391585	          0.13272882	         -0.37345982	          0.69011325	          0.07838067	         -0.24438164	          0.24357830	          0.12641403	         -0.31383738	          0.50167412	          1.37281060	         -0.25690913	          0.62702703	          1.31088543	         -0.21323738	          0.62262702	          1.30575502	         -0.31948677	          0.62108159	          1.30513811	         -0.26542917	          0.66031498	          1.23518610	         -0.26759699	          0.74350297	          0.59393817	         -0.23357110	          0.51327211	          0.55254412	         -0.48165634	          0.68920457	          0.63484329	         -0.16254261	          0.46157837	          0.61062163	         -0.42244652	          0.69075602	          0.54698265	         -0.16132458	          0.45344046	          0.52450424	         -0.41201162	          0.64869857	          0.13804835	         -0.10010849	          0.37618631	          0.17814623	         -0.34244239	          0.64876091	          0.14794996	         -0.14239393	          0.33828789	          0.20030020	         -0.34596914	          0.78339094	          0.04142080	         -0.18068595	          0.30349180	          0.04780696	         -0.36694521	
